<svg width="512" height="512" viewBox="0 0 512 512" fill="none" xmlns="http://www.w3.org/2000/svg">
<rect width="512" height="512" rx="128" fill="#E0F2FE"/>
<path d="M418.906 231.937L110.906 95.9375C105.394 93.5036 99.1307 94.6043 94.6423 98.771C90.1539 102.938 88.1954 109.471 89.5526 115.41L132.886 304.91C134.628 312.531 141.059 318.063 148.855 318.909C156.651 319.754 164.271 315.748 168.167 308.746L216.75 221.333L304.167 172.75C311.168 168.854 315.174 161.233 314.329 153.437C313.483 145.641 307.952 139.21 300.33 137.469L110.83 94.1354" fill="#0EA5E9"/>
<path d="M216.75 221.333L263.843 378.425C266.868 388.507 278.859 392.504 287.356 386.257L412.305 294.385C421.888 287.339 424.901 274.302 418.906 231.937C412.911 189.573 400 100 400 100L216.75 221.333Z" fill="#0284C7"/>
</svg>
